PathFileType	3	(X/Y/Z)	results
DataRate	CameraRate	NumFrames	NumMarkers	Units	OrigDataRate	OrigDataStartFrame	OrigNumFrames
30.0	30.0	4	85	mm	30.0	175	233
Frame#	Time	head			nose			neck			shoulder_r			elbow_r			wrist_r			shoulder_l			elbow_l			wrist_l			hip_r			knee_r			ankle_r			hip_l			knee_l			ankle_l			heel_r			heel_l			mtoe_r			ltoe_r			mtoe_l			ltoe_l			asis_l			asis_r			psi_r			psi_l			mhnd_r			lhnd_r			mhnd_l			lhnd_l			l_lat_knee			r_med_wrist			l_lat_ankle			r_med_ankle			r_lat_knee			xiphoid			l_med_ankle			r_med_knee			l_med_elbow			navel			r_lat_elbow			r_lat_wrist			l_med_wrist			l_lat_elbow			l_med_knee			r_med_elbow			r_lat_ankle			l_lat_wrist			chin			T10			r_eye			l_eye			l_ear			r_ear			spinal_cord_8			spinal_cord_12			spinal_cord_27			spinal_cord_33			up_arm_r_0			up_arm_r_5			up_arm_l_0			up_arm_l_5			front_torso_11			front_torso_7			front_torso_4			front_torso_1			front_torso_10			thigh_r_2			thigh_r_3			thigh_l_1			thigh_l_5			shank_l_0			shank_l_4			shank_r_1			shank_r_2			foot_r_1			foot_r_3			foot_r_5			foot_r_6			foot_r_7			foot_l_1			foot_l_7			foot_l_0			foot_l_4			foot_l_5			foot_l_6			
		X1	Y1	Z1	X2	Y2	Z2	X3	Y3	Z3	X4	Y4	Z4	X5	Y5	Z5	X6	Y6	Z6	X7	Y7	Z7	X8	Y8	Z8	X9	Y9	Z9	X10	Y10	Z10	X11	Y11	Z11	X12	Y12	Z12	X13	Y13	Z13	X14	Y14	Z14	X15	Y15	Z15	X16	Y16	Z16	X17	Y17	Z17	X18	Y18	Z18	X19	Y19	Z19	X20	Y20	Z20	X21	Y21	Z21	X22	Y22	Z22	X23	Y23	Z23	X24	Y24	Z24	X25	Y25	Z25	X26	Y26	Z26	X27	Y27	Z27	X28	Y28	Z28	X29	Y29	Z29	X30	Y30	Z30	X31	Y31	Z31	X32	Y32	Z32	X33	Y33	Z33	X34	Y34	Z34	X35	Y35	Z35	X36	Y36	Z36	X37	Y37	Z37	X38	Y38	Z38	X39	Y39	Z39	X40	Y40	Z40	X41	Y41	Z41	X42	Y42	Z42	X43	Y43	Z43	X44	Y44	Z44	X45	Y45	Z45	X46	Y46	Z46	X47	Y47	Z47	X48	Y48	Z48	X49	Y49	Z49	X50	Y50	Z50	X51	Y51	Z51	X52	Y52	Z52	X53	Y53	Z53	X54	Y54	Z54	X55	Y55	Z55	X56	Y56	Z56	X57	Y57	Z57	X58	Y58	Z58	X59	Y59	Z59	X60	Y60	Z60	X61	Y61	Z61	X62	Y62	Z62	X63	Y63	Z63	X64	Y64	Z64	X65	Y65	Z65	X66	Y66	Z66	X67	Y67	Z67	X68	Y68	Z68	X69	Y69	Z69	X70	Y70	Z70	X71	Y71	Z71	X72	Y72	Z72	X73	Y73	Z73	X74	Y74	Z74	X75	Y75	Z75	X76	Y76	Z76	X77	Y77	Z77	X78	Y78	Z78	X79	Y79	Z79	X80	Y80	Z80	X81	Y81	Z81	X82	Y82	Z82	X83	Y83	Z83	X84	Y84	Z84	X85	Y85	Z85	
175	5.833333333333333	1936.0921166914331	1833.5736109713146	-423.4768799748165	2033.711374878587	1598.365656780147	-444.45531261311567	1866.2967916119496	1437.636619527822	-444.3550040679263	1892.8561990206904	1379.681395309901	-227.7789207768363	1977.703264041646	1103.2626589775957	-136.90111228674465	2206.319578222987	1017.8040044829477	-256.39705076531607	1844.0868081695892	1416.2084511083024	-648.5290503817757	1681.1542438297788	1224.1721371248836	-821.0505366404388	1604.872568975441	974.7806410440242	-905.6231525932899	1800.948203589995	860.1002779703792	-343.9251012388182	1753.906316351901	471.34438449382077	-328.3860947340942	1488.756962676339	147.12866492597178	-293.2319692554586	1792.6367220828306	864.974541420122	-577.7892893030192	2085.248513196981	575.1772500707826	-552.691258918556	1741.6181952724237	367.0728911501604	-433.0937632053449	1444.0573557532446	101.54361435651101	-296.3428276180643	1674.2961294898444	341.9220684379462	-419.0972284044408	1651.99301338127	12.756822393873698	-240.87921226799708	1579.206301656383	37.96369610551294	-190.16316901039536	1858.1149051147258	202.77177390767363	-362.6797722344777	1787.552614286336	185.7419669858294	-435.280947500523	1849.1588618614503	939.5978992179264	-630.2906789577526	1856.8286520216975	929.0021854264013	-287.7764544795907	1677.3136054619997	960.3661540010919	-396.0977689849816	1680.674088458003	962.1334249297162	-513.0290475283354	2258.727045615843	969.1720432466449	-272.8310850308363	2282.0353231236463	1010.0882210326312	-298.3581853313254	1572.957906994548	923.1718601339098	-951.8032877638082	1589.774089095832	888.2786799347241	-914.987132086836	2074.7826772519184	581.8439947445206	-602.6648229142758	2198.300002174325	995.4152839359651	-231.83360517030988	1714.9582389246398	349.63222081765497	-483.2396287428965	1499.6443630321696	121.6097408272362	-324.05198066634114	1748.9151227555571	465.9392853101384	-285.565275815476	1938.9780585898384	1227.9866150020189	-461.0750150385002	1745.780557542799	356.00305151507325	-397.1008428157066	1756.9667429405874	465.70915351602446	-369.95765776110994	1652.7481589639822	1251.614782445853	-806.8371595752251	1911.3764838320535	978.3122859626342	-472.5979287252737	2005.9465200523637	1128.881180762479	-110.56659950476157	2194.528875100557	1045.483498299387	-279.12004461550686	1607.4662082086727	997.2508473753072	-936.3360836540385	1725.3507011245863	1218.8909227298611	-834.357527663558	2082.2051482398606	604.3565661218745	-508.9282115860986	1947.1318327420797	1092.399441475714	-164.68946454336356	1470.2734367201474	142.23683905669532	-241.87442003948044	1621.2480163319565	968.5428261469311	-873.3605568503534	1991.41242771251	1514.5072128436366	-444.28574205961235	1722.421753260272	1278.7628735917042	-432.00578402544517	2044.5483388490686	1633.7002905382017	-403.97092375796126	2037.684910003899	1637.0040070141833	-486.5712407110125	1912.0952782129523	1659.665727472113	-538.4594900795015	1925.3074360655337	1648.4769119379043	-333.4019213061363	1823.4132941919825	1513.9015815847517	-435.73283127346417	1742.1176935400638	1391.7833568387662	-432.2989641923972	1711.7771689520732	1104.004186699394	-423.39997478158574	1735.0462301059827	1265.3708973983892	-434.32059907798003	1981.120998677396	1248.7590467977993	-209.12702179905446	1915.8269189212524	1218.3773982341163	-136.35645584307466	1839.2444495621053	1369.4916130634867	-700.8938687693526	1690.2036666144463	1309.8404582790936	-774.4283024098297	1880.1711647020556	1014.4533080755884	-405.5257194272767	1956.023446966846	1123.9164391779354	-466.5866117195654	1944.5542810500497	1281.817281198634	-541.705226058903	1873.5136696830807	1058.6776160484987	-552.7286740567001	1983.9049909162486	1317.9578114312746	-360.65840131942434	1776.544311761401	649.0459738830318	-353.3620071409023	1764.6002587063717	618.1015864008717	-256.2411957137642	1988.5205258767944	670.55035786488	-512.9691733191628	1883.5818608191425	795.6919720220619	-672.0252007140084	1816.0672340127003	392.2040232606617	-530.6029561620265	1965.4190174512364	502.26879744880057	-456.1642185749817	1628.0730704673524	348.8086465912152	-253.39074188780063	1627.2152815199056	288.25336848978725	-349.88306920931575	1627.0354555962185	15.088409180470483	-222.05856907601859	1606.5389511162327	25.740123897351385	-202.25125638751703	1581.7360110003979	51.27630995374534	-274.67464780927355	1563.3350294726392	66.9728907569863	-241.40471971461017	1539.882035945086	62.09361898951014	-213.04668606357643	1818.6851464024667	183.95476635130112	-403.424854889768	1749.1589888977405	259.4350504610389	-458.05105661733086	1809.1030828075884	180.65429502297474	-417.86516550481866	1829.9163438395547	188.40129953230738	-385.80340313040887	1791.3385186281434	231.50235112531223	-412.79990040159976	1781.5928803674653	274.9026989551875	-399.45658444390017	
176	5.866666666666666	2076.7325347346055	1841.8914190937342	-452.75564176730796	2178.789059115716	1607.8094737530232	-461.8388469571383	2017.4865373326286	1442.1255413409838	-458.69134495720897	2071.433965783436	1404.677521811839	-245.9240567510287	2140.1555394447473	1130.876648345396	-135.58120325925762	2369.7552688110613	1060.743042472816	-262.9119601603176	1982.180871066449	1426.455552455936	-659.2154793377309	1785.4366787137365	1248.1023470198961	-809.7826952838038	1707.3559714753915	995.7343343901279	-883.140237251904	1951.2019562991734	854.6375744058982	-343.51222297938347	1818.9372305182596	486.95323539256356	-324.6338594462989	1518.8242190303338	193.47738865201796	-303.18781498113157	1956.3079461856041	876.2032128018715	-576.5232736525289	2280.2408975181293	629.8716892426788	-562.7353474625797	2063.9744081760155	285.6792575250347	-460.49467006116856	1469.8117007205603	156.3183156363545	-309.02968083557926	2017.4249604270344	227.59409309060916	-448.6452731601982	1649.042855155872	14.68043965869345	-264.18048757373367	1576.8804614878022	42.13473816620475	-213.73983568165133	2249.999936068133	219.28709499196052	-402.0089076402188	2199.864823162989	168.91488031313565	-476.0973163361505	2016.291839305182	953.7120734327438	-620.2737344475213	2004.2923735373295	918.731120407043	-279.51071628323956	1831.5004943487918	959.7698644932276	-395.2761930566838	1841.5521897954427	969.7981101143516	-511.40430206865017	2423.9559673043505	1015.260212399675	-282.28421418095775	2444.8036682219154	1058.1562478591732	-306.6634217779181	1668.0840088953146	942.9800178813379	-921.7318405555973	1696.4925002855211	908.5791516483955	-892.3161076382754	2272.7388090978848	633.2838280704747	-611.8746550944991	2363.308925720609	1037.0885857389221	-239.08251189531327	2048.0330688711642	260.6678053867044	-511.9712574356505	1530.0014521562014	165.31489578168785	-331.4997829807377	1809.0824041204482	483.783877432927	-282.3095499211683	2092.598213090766	1233.0447282480652	-471.2889437460634	2072.4539910840745	275.88258017977	-424.8930027674958	1825.9327783620497	477.81587830895336	-365.1793487207227	1760.877947473525	1272.481164657558	-786.0220871755507	2068.4868321865933	982.7448361727385	-471.9963249608744	2168.1318866231973	1156.854735279579	-109.31411872776079	2356.21554557486	1088.6876005544154	-284.29623185431177	1700.1116150362577	1019.164347910034	-912.3545323422305	1825.1854146019548	1246.3177998807291	-833.7649274523089	2275.4764644881757	650.2194997179546	-516.7213602609002	2110.542359596213	1119.6246779010091	-164.2389625525487	1494.8503493905048	193.3389603376519	-253.90898620371033	1732.0998843010827	989.9717805546278	-856.63604048505	2137.8705695983053	1523.2897127647054	-459.9532374866479	1877.0252048139912	1281.809573926318	-432.9464094723974	2187.700934583455	1644.7762814587668	-422.35473020643934	2183.534607466897	1644.953755716625	-505.2006340282731	2059.389004637372	1663.5256279805908	-561.9602540827639	2065.956495183565	1660.0336737168893	-356.30755766774143	1973.8730630232392	1518.0466551136637	-450.72077443868176	1894.8481213450943	1395.004851848526	-438.4978375728332	1869.666406490645	1107.374538760118	-417.2546165231094	1889.7293976006033	1268.5198201285314	-435.4094848574481	2153.1465836211414	1271.7150298388683	-215.53897244496008	2083.1853876980035	1248.151609257721	-144.6015848011884	1965.5655521138774	1385.7804309214255	-714.1468115881872	1804.1320362099375	1328.2759839801968	-756.7048508341894	2040.1831786606128	1020.9787386929452	-404.7973772262191	2111.0206871438086	1129.0929614145805	-473.7723045565718	2093.157865889194	1283.8238572225553	-554.06111696043	2025.2664795795986	1059.437467972091	-553.0108710046279	2141.1560986304594	1327.4234912492932	-376.7822106935887	1882.8396020137566	653.3844814311534	-350.74447628210964	1854.091571744226	630.3616361874018	-254.95216508336287	2174.192000139999	704.1717755090431	-519.0376337810172	2057.1006635775702	825.4352643930433	-672.5177694151799	2119.9941966222223	345.8180002560326	-554.9795408434645	2204.732919897833	506.9116039823739	-472.3385401053911	1673.9504140636398	382.0507826964873	-257.94342344218245	1676.4182710368002	316.60077381317154	-351.15636652883734	1622.9314193508558	17.772968200808535	-247.11702411773854	1602.6308212279896	27.56812318868053	-226.6759866473598	1591.8859804735305	74.16883196451619	-291.6786989021302	1572.9907460613242	85.12081493549368	-256.82341134008504	1545.846594538571	78.80451911586499	-232.30142699610795	2227.416875342087	183.63998685624767	-444.2964525662902	2124.7452201585165	207.4078933884515	-493.3759760234462	2221.0017704003976	176.30108836595215	-459.00082681073803	2234.6260777077896	192.66329748186857	-426.32329808768026	2177.077320559235	206.619702695215	-450.15855381435523	2144.338762431403	235.08369928830413	-433.5875113828012	
177	5.9	2218.216395657359	1845.7947950562118	-485.894029994529	2325.7897897680573	1614.0820422686595	-480.4570276142361	2170.0902615712544	1443.6056741607233	-475.4988861563899	2252.0626917091995	1422.1833582718905	-262.36449942767854	2281.1400261129766	1148.1302521006585	-136.21172721854043	2512.4077578036377	1056.7763315473405	-245.8364394369376	2118.0097551518024	1428.215430256374	-673.1938093743029	1924.8741025529957	1235.40301308498	-809.9805818025612	1855.987511412228	975.3089737132148	-862.6424071547455	2102.530374826897	847.8836159157912	-348.35105626776584	1933.5340458728433	495.40715668509654	-322.46619056461594	1585.0891357673254	260.8731878333598	-307.11082720700796	2111.2807693492377	883.3991792045816	-579.5379351946045	2428.966476175317	639.9428139563832	-563.1664161543437	2371.8705273132678	229.10294452506858	-502.8055439872729	1531.6681582200524	238.6651282373849	-314.56188571408035	2348.383737895917	159.7304844549692	-497.4892347264334	1638.7153197128973	34.60704721956229	-281.4295819069992	1581.7643876029115	84.61559998863238	-228.8829843816584	2577.2614768952335	204.8570817258463	-453.7439845831938	2538.705745625185	150.28170175502035	-531.6860486309748	2174.8575192416265	960.9110247692907	-617.8746591042508	2157.3936079529594	905.7241923823811	-280.0336992794664	1987.789511738945	960.7929625837694	-394.6842062046188	1999.6218673800922	977.4680399632472	-509.8765546859949	2563.8399975829757	1006.6044140860087	-260.6415461233757	2589.8488655697383	1047.1370336028883	-284.08696776371795	1818.3217543296091	918.2657977972233	-896.4356553792143	1848.5184206719123	887.3494185283676	-865.0018175857898	2429.1849070218364	642.0137382795621	-612.0658741336446	2502.360183469047	1034.2197017141923	-222.18953757239746	2362.0639733199837	206.01803172626788	-556.6614293153563	1589.9191785081862	233.34292038158833	-337.7438018942219	1921.8819583733334	495.3922818259014	-280.5852250264816	2247.6106243668064	1235.1030249503895	-481.19874215060025	2386.715776217692	219.3530378758863	-469.3404153801818	1939.9710169869886	485.22313916697385	-362.78212384120906	1899.8820099665313	1260.4997386025482	-787.4511742724304	2226.7680922122577	984.7211475793929	-470.8837342605792	2309.394656541153	1172.2449008276358	-108.50511594730058	2502.7756523610333	1085.3019646033304	-268.5304983746631	1847.3811794693233	996.1386521672647	-893.4153955922424	1964.3908364157332	1233.2641705610922	-834.3146560702812	2426.8577396789437	653.4041653611773	-516.0799183279454	2253.05687098861	1138.7052827134187	-166.99030382054698	1563.13196512546	261.42526176769053	-256.9037915909194	1881.3250625523015	972.5596038132545	-836.2153346292861	2286.776469766179	1528.8046065944275	-475.24280358353946	2032.3941867675078	1282.8267951995929	-439.6751495035565	2332.8375865590033	1653.2070070597572	-442.71411354579624	2330.799179526271	1649.0840136327581	-525.5372949673085	2207.76196837188	1661.7561512566137	-586.1999787969675	2209.1191021004843	1668.8532737377288	-380.5397097609813	2125.689256303871	1519.2620439031998	-469.6384168196968	2048.5961131940644	1395.8962160321655	-450.3732476602312	2027.6962324627657	1109.128285628751	-416.5510761085176	2045.2088701194145	1269.599797571389	-441.89128015211617	2316.053929448378	1282.9898057841574	-219.82621111829073	2238.1298361953877	1270.1536073164223	-154.67266639662068	2101.9765517565643	1383.7687627563917	-725.3034604534057	1941.8197984714814	1319.2010691477344	-762.1756111748955	2199.5781742786116	1025.3981115982542	-404.66651865573647	2267.3278859950915	1131.3688215305594	-479.79549816307906	2245.529835658444	1282.3650257083557	-566.0046347052864	2180.6262230311436	1057.4167818903416	-553.9462888990041	2297.1704781995986	1333.946415702561	-391.9208236115489	2014.1584483965148	654.4739381392969	-351.7603911819024	1980.973529956707	637.4156183530453	-256.15473001842116	2325.8303876748582	707.6946657687987	-520.6375072615194	2217.042427298853	837.9806794444759	-672.8285095786962	2391.5085503768805	316.97095434257733	-589.8448269716429	2415.1628717776784	487.589353315354	-488.3994209744045	1773.878163151337	414.03936350891166	-256.41623123251986	1761.117455358251	356.40144284825686	-353.85072809209	1615.4379017088568	46.53189897359813	-264.15265164127186	1600.0403105233402	62.030358721272435	-242.97230014793288	1610.658737683746	113.76321619895194	-303.991893096089	1596.556630005139	128.68955413610027	-268.35200139691744	1568.374040904754	131.86209705710434	-244.3998634140405	2562.7852418163134	168.53164111215204	-498.9086653440584	2455.9739016686763	170.4711790101649	-544.764500201217	2557.9109501907064	161.13570520886807	-514.1655666561724	2568.117589185882	177.46750897135456	-480.25006538475816	2508.2054642235153	178.85048536983737	-502.2360784420072	2470.0299781244944	196.85832647515332	-482.872151736964	
178	5.933333333333334	2362.375568619802	1844.2090920077385	-517.8988153895054	2475.6441470340833	1615.9021679956268	-499.4984482219756	2323.736413181494	1441.3314484808325	-492.4014842299916	2417.7357323588267	1430.6352328430412	-274.5750488980243	2433.2463113112044	1154.4697317674174	-150.6510549727468	2644.583734254617	1014.5561890243862	-248.67439031440432	2255.973412062635	1418.6198113425767	-688.4271980543368	2098.9470727822772	1188.7047959006952	-813.6088423882891	2060.1719567433443	919.8754882174107	-850.956309662978	2271.0015929297524	847.9209443764652	-353.2328445376381	2107.670063407712	492.0727295366248	-319.15170725436843	1718.724263282697	332.87335724752364	-313.4464872321483	2269.880050528936	881.7201294877841	-584.8395259101827	2561.593216406365	613.756421442246	-564.3121918387482	2588.129646860768	195.76199650990984	-547.9030735263246	1666.9065350293974	328.33820058134467	-321.7455285835317	2573.5851520968426	127.32782718335773	-550.4831018129947	1652.6474593358414	98.54980494327576	-287.24166273687683	1642.9004069742753	170.9667510318118	-230.97275641007656	2804.206732095003	162.66844946291985	-506.89636808784354	2762.3869764349856	126.2790941663619	-593.307621512348	2328.8356172758995	961.3773320669718	-626.0556023446716	2325.9375377284073	908.5140030955544	-287.40510642487095	2150.1827377403474	955.7274498458183	-396.1433166794892	2157.12642245049	971.8477069659882	-511.81207887270506	2686.5845238479233	955.1306897151052	-257.9604809797104	2718.9055888321423	988.0894326914	-285.12870275543304	2031.1643738062273	857.0479510779237	-882.9856323202375	2061.4579590109597	831.6651505933171	-847.0167644104782	2566.632210160367	614.2744273404235	-613.1059513745681	2631.053542954269	996.5203068900623	-222.97279218816425	2587.3354745754477	177.24355140493097	-604.3475113913454	1716.4906698454047	310.0603992251614	-348.0037452781641	2095.819248472765	494.28531903067335	-277.5414346134154	2403.801357021151	1233.7170882570406	-491.3375618387745	2602.231782809837	185.59087936813413	-514.242487299203	2112.2702356216714	483.3455598181879	-359.98318598311744	2069.4151406459196	1212.6281684015066	-795.788579772539	2385.894871540609	983.5141275116059	-473.73837827353367	2465.0224559719873	1176.1491065744638	-124.80965271848571	2639.747753717245	1041.89125899884	-274.1874604806009	2052.2097822971255	937.509959140698	-883.8280374047412	2140.1907314746	1189.1011949388521	-834.9886823891179	2563.9405773550975	625.8676318529986	-517.1538072044233	2402.5963477465575	1147.4379335991655	-179.56381989314184	1699.338432737513	329.98186961109786	-262.2703460440718	2083.3465386883995	921.5935170731783	-822.532238465994	2438.730224278318	1530.064272123864	-489.97551568656877	2187.7150328755633	1280.0092036156295	-452.81974026324025	2481.445161711928	1657.1420376156473	-463.8532065434588	2480.1028404492704	1648.575639521812	-546.3495613486056	2357.225505571561	1654.8973699058586	-608.3164549961655	2356.9336285258564	1672.939924750345	-403.32197155356795	2278.3847488568317	1516.5784439823512	-489.11562617030046	2202.6365704316368	1392.9020833569325	-466.7549859443613	2184.9308229519697	1107.027528652037	-424.5787403862551	2200.7045175099443	1266.8803846008288	-454.54838450871944	2473.203495732444	1286.6327256177476	-236.2888284917524	2398.847237988503	1279.5828658680387	-166.26481045487864	2249.5554412557726	1367.0978241688379	-735.8853910977332	2101.800897999241	1278.6655159831316	-774.9628781662542	2357.7119317328975	1025.7988243040475	-408.95911459714887	2424.7541004884524	1130.3194136674338	-486.7085349854685	2401.8005481664463	1278.416716645738	-577.5234411643991	2339.5180914774323	1053.1460209365866	-559.2586040185784	2451.4841496781987	1335.7620606152125	-404.6777865862125	2184.7627911425598	653.5221970982705	-352.5113695493282	2153.812271480513	637.2301140034949	-256.0266511045126	2467.9448318253403	688.5131050343882	-523.0798036962066	2372.706841157097	827.4664765699081	-676.6801049360294	2595.064396275659	294.8225563486104	-624.1998009565751	2574.8232503151626	454.4727555301342	-505.6104030391557	1937.213096360112	435.15209222320044	-254.5159647082788	1908.8929524879595	397.1844528425192	-358.1252044056203	1643.28937942344	121.03563376953223	-267.50979916430003	1643.0905655503818	142.21107921164307	-245.65902477024161	1667.330326272122	180.46949266272497	-312.4509259415982	1670.7559901140305	200.3268956071103	-276.5926596551724	1654.0178903815447	218.0608233098235	-248.60387446328158	2787.8101416356853	137.0238066223922	-558.3011491977868	2679.309099088648	148.52867904358203	-598.4302341439607	2782.31091933792	133.11838021141548	-574.602616096589	2793.906704664895	141.6912093920746	-538.3643920411051	2733.1933152960873	147.61709444161593	-557.1667416046479	2695.8870564090353	160.8219041028756	-532.8667871340883	
